# xmcd
#
# Track frame offsets:
#	150
#	21034
#	40109
#	57446
#	72348
#	95995
#	109701
#	133694
#	153845
#	175731
#
# Disc length: 2617 seconds
#
# Revision: 1
# Processed by: cddbd v1.5.1PL2 Copyright (c) Steve Scherf et al.
# Submitted via: audiograbber 1.83.01
#
DISCID=830a370a
DTITLE=Charlie Sexton - Cruel And Gentle Things
DYEAR=2005
DGENRE=
TTITLE0=Gospel
TTITLE1=Burn
TTITLE2=I Do The Same For You
TTITLE3=Cruel And Gentle Things
TTITLE4=Bring It Home Again
TTITLE5=Once In A While
TTITLE6=Just Like Love
TTITLE7=Regular Grind
TTITLE8=Dillingham Lane
TTITLE9=It Don't Take Long
EXTD=
EXTT0=
EXTT1=
EXTT2=
EXTT3=
EXTT4=
EXTT5=
EXTT6=
EXTT7=
EXTT8=
EXTT9=
PLAYORDER=
